<svg xmlns="http://www.w3.org/2000/svg" width="1280" height="450" xml:space="preserve" version="1.1" style=""><rect id="backgroundrect" width="100%" height="100%" x="0" y="0" fill="none" stroke="none"/>
 <defs>
  <linearGradient y2="0.5" x2="6.034669876098633" y1="0.5" x1="0" id="SVGID_1_">
   <stop stop-color="#21AA00" offset="0"/>
   <stop stop-color="#21A801" offset="0.4388"/>
   <stop stop-color="#23A104" offset="0.5969"/>
   <stop stop-color="#25960A" offset="0.7096"/>
   <stop stop-color="#298513" offset="0.8007"/>
   <stop stop-color="#2E6F1E" offset="0.8787"/>
   <stop stop-color="#33542B" offset="0.9466"/>
   <stop stop-color="#393939" offset="1"/>
  </linearGradient>
  <linearGradient y2="0.5" x2="4.892560005187988" y1="0.5" x1="-1.1183899641036987" id="SVGID_00000016755669717747742090000000752992749229511320_">
   <stop stop-color="#21AA00" offset="0"/>
   <stop stop-color="#21A801" offset="0.4388"/>
   <stop stop-color="#23A104" offset="0.5969"/>
   <stop stop-color="#25960A" offset="0.7096"/>
   <stop stop-color="#298513" offset="0.8007"/>
   <stop stop-color="#2E6F1E" offset="0.8787"/>
   <stop stop-color="#33542B" offset="0.9466"/>
   <stop stop-color="#393939" offset="1"/>
  </linearGradient>
  <linearGradient y2="0.5" x2="3.8960800170898438" y1="0.5" x1="-2.276930093765259" id="SVGID_00000045604452966182732880000006864956034212332418_">
   <stop stop-color="#21AA00" offset="0"/>
   <stop stop-color="#21A801" offset="0.4388"/>
   <stop stop-color="#23A104" offset="0.5969"/>
   <stop stop-color="#25960A" offset="0.7096"/>
   <stop stop-color="#298513" offset="0.8007"/>
   <stop stop-color="#2E6F1E" offset="0.8787"/>
   <stop stop-color="#33542B" offset="0.9466"/>
   <stop stop-color="#393939" offset="1"/>
  </linearGradient>
  <linearGradient y2="0.5" x2="2.874190092086792" y1="0.5" x1="-3.4507899284362793" id="SVGID_00000136392986283545589630000007782329593601645958_">
   <stop stop-color="#21AA00" offset="0"/>
   <stop stop-color="#21A801" offset="0.4388"/>
   <stop stop-color="#23A104" offset="0.5969"/>
   <stop stop-color="#25960A" offset="0.7096"/>
   <stop stop-color="#298513" offset="0.8007"/>
   <stop stop-color="#2E6F1E" offset="0.8787"/>
   <stop stop-color="#33542B" offset="0.9466"/>
   <stop stop-color="#393939" offset="1"/>
  </linearGradient>
  <linearGradient y2="0.5" x2="1.7367099523544312" y1="0.5" x1="-4.436299800872803" id="SVGID_00000078763425347010062750000003036612819137190043_">
   <stop stop-color="#21AA00" offset="0"/>
   <stop stop-color="#21A801" offset="0.4388"/>
   <stop stop-color="#23A104" offset="0.5969"/>
   <stop stop-color="#25960A" offset="0.7096"/>
   <stop stop-color="#298513" offset="0.8007"/>
   <stop stop-color="#2E6F1E" offset="0.8787"/>
   <stop stop-color="#33542B" offset="0.9466"/>
   <stop stop-color="#393939" offset="1"/>
  </linearGradient>
  <linearGradient y2="0.5" x2="1.0000200271606445" y1="0.5" x1="-8.193099975585938" id="SVGID_00000101801434011816190960000018215063997035991724_">
   <stop stop-color="#21AA00" offset="0"/>
   <stop stop-color="#21A801" offset="0.4388"/>
   <stop stop-color="#23A104" offset="0.5969"/>
   <stop stop-color="#25960A" offset="0.7096"/>
   <stop stop-color="#298513" offset="0.8007"/>
   <stop stop-color="#2E6F1E" offset="0.8787"/>
   <stop stop-color="#33542B" offset="0.9466"/>
   <stop stop-color="#393939" offset="1"/>
  </linearGradient>
 </defs>
 <g style="" class="currentLayer">
  <title>Layer 1</title>
  
   
   
   
   
   
   
   
   
   
   
   
   
   
   
   
  
 <g display="none" class="st0" id="Layer_2_00000073721796951043646140000001880492201452517025_"/><g display="none" class="st0" id="Layer_2_00000129177024633083369010000014317791210203132061_"/><rect id="svg_1" fill="none" height="346.05218505859375" width="1935.4742431640625" class="st1" y="73.67660522460938" x="-313.5657653808594"/><g id="svg_2" class="">
    <g id="svg_3">
     <path id="svg_4" fill="url(#SVGID_1_)" d="m149.39694363899625,53.06964713294933 l63.65128259658814,-1.5499500632286072 c31.412321281433105,0 52.904962158203126,6.613120269775391 64.47792263031006,19.942690813541414 c11.572960472106933,13.226240539550782 15.292840623855591,32.85894134044647 10.95298044681549,58.69144239425659 c-3.926540160179138,27.589111125469206 -14.98285061120987,48.15178196430207 -33.1689313530922,61.791342520713805 c-15.292840623855591,11.262970459461213 -36.06217147111892,16.8427906870842 -61.99800252914429,16.8427906870842 c-2.8932401180267333,0 -5.683150231838226,0 -8.57639034986496,0 s-5.683150231838226,-0.20666000843048096 -8.57639034986496,-0.5166500210762024 l-11.262970459461213,76.56753312349319 l-49.701732027530674,0 l34.2022313952446,-231.7691994547844 zm59.82807244062423,35.13220143318176 c-2.479920101165771,0 -4.959840202331542,0 -7.439760303497315,0 s-5.166500210762024,0.20666000843048096 -8.059740328788758,0.5166500210762024 l-12.81292052268982,84.21395343542099 l14.466200590133667,0 c17.15278069972992,0 29.035731184482575,-7.439760303497315 35.85551146268845,-22.42261091470718 c2.479920101165771,-5.476490223407745 4.44319018125534,-12.296270501613618 5.889810240268708,-20.459340834617617 c3.8232101559638982,-27.89910113811493 -5.373160219192505,-41.848651707172394 -27.89910113811493,-41.848651707172394 z" class="st2"/>
     <path id="svg_5" fill="url(#SVGID_00000016755669717747742090000000752992749229511320_)" d="m419.5015746576349,263.24287570674846 c-20.356010830402372,17.359440708160403 -40.092041635513304,26.0391610622406 -59.414752423763275,26.0391610622406 c-27.795771133899688,0 -43.70859178304672,-16.532800674438477 -47.635131943225865,-49.495072019100185 c-1.4466200590133669,-11.572960472106933 -0.9299700379371646,-25.93583105802536 1.6532800674438488,-43.08861175775528 c2.479920101165771,-17.15278069972992 6.819780278205871,-31.928971302509307 12.81292052268982,-44.121911799907686 c6.096470248699188,-12.296270501613618 13.226240539550782,-22.319280910491944 21.389310872554777,-30.06903122663498 c15.292840623855591,-14.259540581703186 34.40889140367508,-21.389310872554777 57.24482233524322,-21.389310872554777 c27.072461104393003,0 54.351582217216496,2.583250105381012 81.83736333847047,7.6464203119277965 l-26.24582107067108,176.0743271827698 l-41.74532170295715,0 l0.10333000421524052,-21.59597088098526 l0,0 zm13.329570543766023,-125.02930510044098 c-6.40646026134491,-0.723310029506684 -14.776190602779389,-1.0333000421524048 -25.10919102430344,-1.0333000421524048 s-19.012720775604247,4.133200168609619 -25.93583105802536,12.296270501613618 s-11.986280488967894,22.835930931568146 -14.98285061120987,44.121911799907686 c-2.9965701222419736,21.28598086833954 -2.8932401180267333,35.85551146268845 0.5166500210762024,43.60526177883148 c3.4098901391029357,7.853080320358276 10.023010408878326,11.779620480537416 20.046020817756652,11.779620480537416 c6.096470248699188,0 11.986280488967894,-1.756610071659093 17.876090729236605,-5.373160219192505 c5.889810240268708,-3.6165501475334167 10.64299043416977,-7.439760303497315 14.156210577487945,-11.469630467891692 l13.432900547981262,-93.9269738316536 z"/>
     <path id="svg_6" fill="url(#SVGID_00000045604452966182732880000006864956034212332418_)" d="m515.1851585609476,326.0675182696147 c16.016150653362274,5.063170206546784 31.515651285648346,7.6464203119277965 46.498501896858215,7.6464203119277965 c10.74632043838501,0 17.669430720806123,-1.3432900547981264 20.872660851478575,-4.133200168609619 c6.819780278205871,-5.7864802360534675 11.366300463676453,-15.499500632286072 13.949550569057465,-29.139061188697813 l6.40646026134491,-38.74875158071518 l-1.0333000421524048,0 c-18.90939077138901,18.082750737667084 -37.405461525917055,27.072461104393003 -55.591542267799376,27.072461104393003 s-30.172361230850218,-5.166500210762024 -35.85551146268845,-15.602830636501311 c-5.683150231838226,-10.333000421524048 -7.129770290851593,-26.24582107067108 -4.2365301728248586,-47.7384619474411 l18.186080741882325,-121.41275495290756 l50.321712052822114,0 l-16.532800674438477,109.7364644765854 c-1.4466200590133669,14.259540581703186 -1.6532800674438488,22.939260935783384 -0.5166500210762024,26.0391610622406 c2.479920101165771,5.063170206546784 7.439760303497315,7.6464203119277965 14.98285061120987,7.6464203119277965 c8.57639034986496,0 18.392740750312807,-4.959840202331542 29.449051201343536,-14.776190602779389 c2.479920101165771,-2.0666000843048096 4.44319018125534,-3.6165501475334167 5.889810240268708,-4.546520185470581 l18.186080741882325,-123.99600505828857 l49.701732027530674,0 l-28.932401180267334,195.50036797523498 c-3.6165501475334167,23.76590096950531 -11.779620480537416,41.435331690311436 -24.592541003227236,52.80163215398789 c-12.81292052268982,11.366300463676453 -31.722311294078825,17.04945069551468 -56.72817231416702,17.04945069551468 c-17.46277071237564,0 -37.405461525917055,-3.6165501475334167 -59.93140244483948,-10.74632043838501 l9.506360387802124,-32.652281332015995 z"/>
     <path id="svg_7" fill="url(#SVGID_00000136392986283545589630000007782329593601645958_)" d="m857.000812504963,151.02649112899732 c2.1699300885200503,11.882950484752655 1.8599400758743287,26.349151074886322 -0.8266400337219246,43.398601770401 s-6.819780278205871,31.515651285648346 -12.296270501613618,43.398601770401 c-5.579820227622986,11.882950484752655 -12.399600505828857,21.80263088941574 -20.562670838832855,29.552381205558778 c-15.292840623855591,14.672860598564148 -36.16550147533417,21.90596089363098 -62.617982554435734,21.90596089363098 c-39.26540160179138,0 -61.89467252492904,-17.15278069972992 -67.887812769413,-51.561672103404995 c-2.1699300885200503,-11.882950484752655 -1.756610071659093,-26.5558110833168 1.0333000421524048,-43.9152517914772 c3.926540160179138,-31.928971302509307 14.776190602779389,-56.00486228466034 32.652281332015995,-71.91768293380737 c16.016150653362274,-14.672860598564148 36.578821492195125,-21.90596089363098 61.481352508068085,-21.90596089363098 c39.88538162708283,0 62.92797256708145,17.04945069551468 69.02444281578063,51.04502208232879 zm-91.24039372205733,103.53666422367097 c10.539660429954528,0 18.90939077138901,-4.753180193901062 25.10919102430344,-14.259540581703186 s10.84965044260025,-24.902531015872956 13.949550569057465,-46.188511884212495 c2.9965701222419736,-21.28598086833954 2.789910113811493,-36.47549148797989 -0.8266400337219246,-45.67186186313629 s-10.539660429954528,-13.742890560626984 -20.872660851478575,-13.742890560626984 s-18.496070754528045,4.546520185470581 -24.592541003227236,13.742890560626984 c-6.096470248699188,9.196370375156404 -10.64299043416977,24.48921099901199 -13.639560556411743,45.98185187578201 c-2.9965701222419736,21.389310872554777 -2.8932401180267333,36.785481500625615 0.3099900126457218,46.188511884212495 c3.203230130672455,9.299700379371643 10.023010408878326,13.949550569057465 20.562670838832855,13.949550569057465 z"/>
     <path id="svg_8" fill="url(#SVGID_00000078763425347010062750000003036612819137190043_)" d="m1018.505609093384,284.7355165835185 l-43.295271766185756,0 l0.5166500210762024,-24.48921099901199 l-11.779620480537416,8.679720354080201 c-6.096470248699188,7.129770290851593 -16.532800674438477,13.12291053533554 -31.515651285648346,17.876090729236605 c-5.373160219192505,1.6532800674438488 -11.05631045103073,2.583250105381012 -17.15278069972992,2.583250105381012 c-17.876090729236605,0 -29.552381205558778,-5.166500210762024 -35.338861441612245,-15.602830636501311 c-5.683150231838226,-10.333000421524048 -7.129770290851593,-26.24582107067108 -4.2365301728248586,-47.7384619474411 l18.186080741882325,-121.92940497398376 l49.701732027530674,0 l-14.466200590133667,98.47349401712417 c-2.8932401180267333,18.082750737667084 -3.7198801517486575,29.242391192913058 -2.6865801095962527,33.6855813741684 s2.8932401180267333,7.439760303497315 5.373160219192505,8.88638036251068 c2.479920101165771,1.5499500632286072 5.7864802360534675,2.2732600927352906 9.919680404663085,2.2732600927352906 s7.853080320358276,-0.723310029506684 11.262970459461213,-2.2732600927352906 c3.4098901391029357,-1.5499500632286072 6.5097902655601505,-3.3065601348876954 9.403030383586882,-5.373160219192505 c6.819780278205871,-5.476490223407745 11.572960472106933,-9.506360387802124 14.466200590133667,-12.296270501613618 l18.186080741882325,-123.47935503721237 l50.321712052822114,0 l-26.865801095962524,180.7241773724556 z"/>
     <path id="svg_9" fill="url(#SVGID_00000101801434011816190960000018215063997035991724_)" d="m1171.43401533194,104.01133921106289 l-4.2365301728248586,34.718881416320805 l-41.22867168188095,0 l-12.81292052268982,86.797203540802 c-1.4466200590133669,7.853080320358276 -1.4466200590133669,13.639560556411743 0,17.359440708160403 c1.4466200590133669,3.7198801517486575 5.063170206546784,5.579820227622986 10.95298044681549,5.579820227622986 s10.95298044681549,-0.723310029506684 15.292840623855591,-2.2732600927352906 c4.2365301728248586,-1.5499500632286072 7.129770290851593,-2.479920101165771 8.57639034986496,-2.789910113811493 l0,33.6855813741684 c-1.4466200590133669,0.3099900126457218 -3.6165501475334167,1.2399600505828856 -6.40646026134491,2.583250105381012 c-2.8932401180267333,1.3432900547981264 -6.096470248699188,2.6865801095962527 -9.609690392017365,4.133200168609619 c-8.88638036251068,3.7198801517486575 -18.90939077138901,5.579820227622986 -29.96570122241974,5.579820227622986 c-17.15278069972992,0 -28.725741171836855,-4.3398601770401015 -34.718881416320805,-13.0195805311203 c-6.096470248699188,-8.679720354080201 -7.6464203119277965,-23.35258095264435 -4.856510198116303,-44.121911799907686 l14.466200590133667,-93.4103238105774 l-20.356010830402372,0 l4.856510198116303,-34.718881416320805 l20.356010830402372,0 l6.40646026134491,-43.398601770401 l50.83836207389832,-7.6464203119277965 l-8.059740328788758,51.04502208232879 l40.50536165237427,-0.10333000421524052 l0,0 z"/>
    </g>
   </g><rect id="svg_10" fill="none" height="235.28240966796875" width="753.1724243164062" class="st1" y="310.6713562011719" x="418.2615966796875"/><g id="svg_11" class="">
    <g id="svg_12">
     <path id="svg_13" fill="#21AA00" d="m699.0092360598603,423.19772223194076 l0,-107.56653438806534 l72.84765297174454,0 l0,3.203230130672455 l-63.75461260080338,0 l0,48.97842199802398 l53.1116221666336,0 l0,3.203230130672455 l-53.1116221666336,0 l0,52.0783221244812 l-9.093040370941162,0 l0,0.10333000421524052 z" class="st8"/>
     <path id="svg_14" fill="#21AA00" d="m785.1864595753709,331.3373484845919 c0,-2.479920101165771 2.1699300885200503,-4.6498501896858215 4.856510198116303,-4.6498501896858215 s4.856510198116303,2.1699300885200503 4.856510198116303,4.6498501896858215 c0,2.583250105381012 -2.1699300885200503,4.753180193901062 -4.856510198116303,4.753180193901062 s-4.856510198116303,-2.1699300885200503 -4.856510198116303,-4.753180193901062 zm0.6199800252914436,91.86037374734879 l0,-81.01072330474854 l8.369730341434478,5.579820227622986 l0,75.43090307712555 l-8.369730341434478,0 z" class="st8"/>
     <path id="svg_15" fill="#21AA00" d="m871.8803331119576,423.19772223194076 l0,-55.17822225093841 c0,-15.18951061964035 -13.12291053533554,-22.629270923137664 -26.5558110833168,-22.629270923137664 s-26.762471091747283,7.5430903077125535 -27.072461104393003,22.215950906276703 l0,55.591542267799376 l-8.473060345649719,0 l0,-81.01072330474854 l8.473060345649719,5.579820227622986 l0,8.78305035829544 c5.373160219192505,-9.816350400447845 17.56610071659088,-14.87952060699463 29.552381205558778,-14.87952060699463 c16.222810661792753,0 32.445621323585506,8.78305035829544 32.445621323585506,26.349151074886322 l0,55.17822225093841 l-8.369730341434478,0 z" class="st8"/>
     <path id="svg_16" fill="#21AA00" d="m904.7392744524042,406.1482715364261 l0,-61.2746924996376 l-15.602830636501311,0 l0,-2.6865801095962527 c12.606260514259338,0 15.602830636501311,-5.889810240268708 15.602830636501311,-17.56610071659088 l8.369730341434478,5.476490223407745 l0,12.089610493183136 l25.62584104537964,0 l0,2.6865801095962527 l-25.62584104537964,0 l0,60.86137248277664 c0,11.676290476322174 5.269830214977264,15.396170628070832 10.74632043838501,15.396170628070832 c5.889810240268708,0 12.089610493183136,-4.3398601770401015 12.089610493183136,-8.059740328788758 l2.6865801095962527,0 c-1.3432900547981264,6.819780278205871 -8.88638036251068,11.05631045103073 -16.532800674438477,11.05631045103073 c-8.57639034986496,-0.20666000843048096 -17.359440708160403,-5.373160219192505 -17.359440708160403,-17.979420733451843 z" class="st8"/>
     <path id="svg_17" fill="#21AA00" d="m945.4512961132089,382.79569058378166 c0,-20.459340834617617 13.432900547981262,-41.02201167345047 40.29870164394379,-41.02201167345047 c18.392740750312807,0 30.06903122663498,13.12291053533554 31.515651285648346,26.0391610622406 c-40.712021660804744,14.466200590133667 -18.702730762958527,6.613120269775391 -62.51465255022049,21.80263088941574 c3.7198801517486575,16.636130678653718 15.292840623855591,31.308991277217867 32.54895132780075,31.308991277217867 c11.05631045103073,0 20.97599085569382,-5.269830214977264 26.142491066455843,-14.672860598564148 l3.8232101559638982,0 c-6.40646026134491,10.126340413093567 -15.292840623855591,17.56610071659088 -31.205661273002622,17.56610071659088 c-26.969131100177766,-0.10333000421524052 -40.608691656589514,-19.83936080932617 -40.608691656589514,-41.02201167345047 zm63.03130257129669,-14.672860598564148 c-1.6532800674438488,-11.676290476322174 -11.469630467891692,-23.35258095264435 -25.41918103694916,-23.35258095264435 c-18.082750737667084,0 -29.345721197128295,15.396170628070832 -29.345721197128295,33.99557138681411 c0,2.789910113811493 0.20666000843048096,5.476490223407745 0.6199800252914436,8.266400337219238 c37.19880151748657,-13.0195805311203 18.496070754528045,-6.303130257129669 54.144922208786014,-18.90939077138901 z" class="st8"/>
     <path id="svg_18" fill="#21AA00" d="m1028.425289498047,382.79569058378166 c0,-20.562670838832855 13.432900547981262,-41.02201167345047 40.29870164394379,-41.02201167345047 c19.21938078403473,0 30.172361230850218,14.362870585918428 31.515651285648346,26.349151074886322 l-8.78305035829544,0 c-1.756610071659093,-11.676290476322174 -11.572960472106933,-23.35258095264435 -25.41918103694916,-23.35258095264435 c-18.082750737667084,0 -29.449051201343536,15.292840623855591 -29.449051201343536,33.892241382598876 c0,20.459340834617617 12.81292052268982,42.365301728248596 33.892241382598876,42.365301728248596 c10.95298044681549,0 20.97599085569382,-5.269830214977264 26.142491066455843,-14.672860598564148 l3.8232101559638982,0 c-6.40646026134491,10.126340413093567 -15.499500632286072,17.56610071659088 -31.205661273002622,17.56610071659088 c-27.279121112823486,-0.20666000843048096 -40.81535166501999,-20.046020817756652 -40.81535166501999,-41.12534167766571 z" class="st8"/>
     <path id="svg_19" fill="#21AA00" d="m1175.360555492119,423.19772223194076 l0,-55.17822225093841 c0,-15.18951061964035 -13.226240539550782,-22.629270923137664 -26.5558110833168,-22.629270923137664 c-13.432900547981262,0 -26.865801095962524,7.5430903077125535 -27.175791108608248,22.215950906276703 l0,55.591542267799376 l-8.369730341434478,0 l0,-112.52637459039688 l8.369730341434478,5.579820227622986 l0,40.29870164394379 c5.373160219192505,-9.816350400447845 17.56610071659088,-14.87952060699463 29.75904121398926,-14.87952060699463 c16.222810661792753,0 32.445621323585506,8.78305035829544 32.445621323585506,26.349151074886322 l0,55.17822225093841 l-8.473060345649719,0 z" class="st8"/>
    </g>
   </g><line id="svg_20" stroke-miterlimit="10" stroke-width="7" stroke="#21AA00" fill="none" y2="116.41094207763672" x2="154.9767608642578" y1="116.41094207763672" x1="50.82012176513672" class="st9"/><line id="svg_21" stroke-miterlimit="10" stroke-width="7" stroke="#21AA00" fill="none" y2="56.89285659790039" x2="152.60015869140625" y1="56.89285659790039" x1="104.8617172241211" class="st9"/><path id="svg_22" stroke-miterlimit="10" stroke-width="5" stroke="#21AA00" fill="#21AA00" d="m222.86457662015354,119.30141138161127 l-16.8427906870842,16.119480657577515 l-7.026440286636352,-6.716450273990631 c-0.6199800252914436,-0.6199800252914436 -1.6532800674438488,-0.6199800252914436 -2.2732600927352906,0 c-0.6199800252914436,0.6199800252914436 -0.6199800252914436,1.5499500632286072 0,2.1699300885200503 l8.163070333003999,7.853080320358276 c0.6199800252914436,0.6199800252914436 1.6532800674438488,0.6199800252914436 2.2732600927352906,0 l17.979420733451843,-17.15278069972992 c0.6199800252914436,-0.6199800252914436 0.6199800252914436,-1.5499500632286072 0,-2.1699300885200503 c-0.6199800252914436,-0.723310029506684 -1.6532800674438488,-0.6199800252914436 -2.2732600927352906,-0.10333000421524052 z" class="st10"/><line id="svg_23" stroke-miterlimit="10" stroke-width="7" stroke="#21AA00" fill="none" y2="171.17584228515625" x2="133.38079833984375" y1="171.17584228515625" x1="85.642333984375" class="st9"/><line id="svg_24" stroke-miterlimit="10" stroke-width="7" stroke="#21AA00" fill="none" y2="226.9740447998047" x2="151.25686645507812" y1="226.9740447998047" x1="47.100242614746094" class="st9"/><line id="svg_25" stroke-miterlimit="10" stroke-width="7" stroke="#21AA00" fill="none" y2="280.7056579589844" x2="118.91458129882812" y1="280.7056579589844" x1="71.17613220214844" class="st9"/><path id="svg_26" fill="#115500" d="m1167.4041451675455,81.07207827527951 l10.126340413093567,-9.919680404663085 l47.11848192214966,47.11848192214966 l-47.11848192214966,47.11848192214966 l-10.126340413093567,-9.919680404663085 l57.24482233524322,-37.09547151327133 l-57.24482233524322,-37.30213152170182 z" class="st11"/><text x="17.51815916248592" y="71.77375371920517" id="svg_27" font-size="303.0696px" font-family="'ArialMT'" enable-background="new" display="none" class="st12 st13 st14" transform="matrix(1.0333000421524048,0,0,1.0333000421524048,-52.963050392165314,-17.466711520399258) ">C</text><g id="svg_28" class="">
    <path id="svg_29" fill="#21AA00" d="m294.36893955297865,58.132817339496114 l0,0 c-12.81292052268982,-12.91625052690506 -28.62241116762161,-18.496070754528045 -45.77519186735153,-16.429470670223235 c-0.5166500210762024,0 -1.0333000421524048,0.20666000843048096 -1.4466200590133669,0.6199800252914436 c-0.3099900126457218,0.413320016860965 -0.5166500210762024,0.9299700379371646 -0.5166500210762024,1.4466200590133669 c0.10333000421524052,0.5166500210762024 0.3099900126457218,1.0333000421524048 0.8266400337219246,1.3432900547981264 c0.413320016860965,0.3099900126457218 1.0333000421524048,0.413320016860965 1.5499500632286072,0.3099900126457218 c16.119480657577515,-1.963270080089569 30.585681247711182,3.203230130672455 42.675291740894316,15.396170628070832 c12.089610493183136,12.192940497398377 17.04945069551468,26.762471091747283 14.87952060699463,42.8819517493248 c-0.10333000421524052,0.5166500210762024 0,1.0333000421524048 0.20666000843048096,1.5499500632286072 c0.3099900126457218,0.413320016860965 0.723310029506684,0.723310029506684 1.3432900547981264,0.8266400337219246 c0.5166500210762024,0.10333000421524052 1.0333000421524048,-0.10333000421524052 1.4466200590133669,-0.413320016860965 s0.6199800252914436,-0.8266400337219246 0.6199800252914436,-1.3432900547981264 c2.376590096950531,-17.359440708160403 -2.9965701222419736,-33.272261357307436 -15.809490644931794,-46.188511884212495 z" class="st8"/>
    <path id="svg_30" fill="#21AA00" d="m337.66421131916445,105.45795927007624 c2.376590096950531,-24.075890982151034 -5.683150231838226,-48.565101981163025 -23.66257096529007,-66.75118272304535 l0,0 c-17.979420733451843,-18.186080741882325 -42.365301728248596,-26.452481079101563 -66.54452271461487,-24.385880994796754 c-0.5166500210762024,0 -0.9299700379371646,0.3099900126457218 -1.2399600505828856,0.6199800252914436 c-0.3099900126457218,0.413320016860965 -0.5166500210762024,0.8266400337219246 -0.413320016860965,1.3432900547981264 c0,0.5166500210762024 0.3099900126457218,0.9299700379371646 0.6199800252914436,1.2399600505828856 c0.413320016860965,0.3099900126457218 0.8266400337219246,0.5166500210762024 1.3432900547981264,0.413320016860965 c23.04259093999863,-1.963270080089569 46.29184188842773,5.889810240268708 63.547952592372894,23.35258095264435 c17.256110703945158,17.46277071237564 24.799201011657715,40.81535166501999 22.525940918922426,63.857942605018614 c0,0.5166500210762024 0.10333000421524052,1.0333000421524048 0.413320016860965,1.3432900547981264 c0.3099900126457218,0.413320016860965 0.723310029506684,0.6199800252914436 1.2399600505828856,0.723310029506684 c0.5166500210762024,0 1.0333000421524048,-0.10333000421524052 1.3432900547981264,-0.413320016860965 c0.5166500210762024,-0.413320016860965 0.8266400337219246,-0.8266400337219246 0.8266400337219246,-1.3432900547981264 z" class="st8"/>
   </g></g>
</svg>